<svg width="120" height="120" viewBox="0 0 120 120" fill="none" xmlns="http://www.w3.org/2000/svg">
<path d="M59.9999 115.504C90.6538 115.504 115.504 90.6538 115.504 59.9999C115.504 29.346 90.6538 4.49609 59.9999 4.49609C29.346 4.49609 4.49609 29.346 4.49609 59.9999C4.49609 90.6538 29.346 115.504 59.9999 115.504Z" fill="#24F351"/>
<path d="M115.282 36.644C112.26 29.4985 107.933 23.0828 102.427 17.5732C96.9172 12.0636 90.5015 7.74037 83.356 4.71755C75.9546 1.5875 68.0966 0 60 0C51.9034 0 44.042 1.5875 36.644 4.71755C29.4985 7.74037 23.0828 12.0636 17.5732 17.5732C12.0636 23.0828 7.73691 29.4985 4.71755 36.644C1.5875 44.042 0 51.8999 0 60C0 68.1001 1.5875 75.9546 4.71755 83.356C7.73691 90.5015 12.0636 96.9172 17.5732 102.427C23.0828 107.933 29.4985 112.26 36.644 115.282C44.042 118.413 51.8999 120 60 120C68.1001 120 75.9546 118.413 83.356 115.282C90.5015 112.26 96.9172 107.933 102.427 102.427C107.933 96.9172 112.26 90.5015 115.282 83.356C118.413 75.9546 120 68.0966 120 60C120 51.9034 118.413 44.042 115.282 36.644ZM60 115.504C29.3463 115.504 4.4962 90.6537 4.4962 60C4.4962 29.3463 29.3463 4.4962 60 4.4962C90.6537 4.4962 115.504 29.3463 115.504 60C115.504 90.6537 90.6537 115.504 60 115.504Z" fill="#070707"/>
<path d="M38.8162 54.428L22.7129 81.4813C20.1086 76.8813 18.5972 72.0289 18.5972 67.8024C18.5972 57.9973 24.6082 52.8682 30.5467 52.8682C33.8047 52.8682 36.4367 53.4907 38.8162 54.428Z" fill="#F8F8F8"/>
<path d="M57.7522 61.9851V102.261C43.5442 101.642 34.3097 95.2362 28.9903 89.82C27.7141 88.5196 26.5278 87.1257 25.4487 85.6766L42.9009 56.3579C43.4681 56.6623 44.0319 56.9735 44.5991 57.2848C48.3793 59.3704 52.2737 61.5147 57.7522 61.9851Z" fill="#F8F8F8"/>
<path d="M94.5515 85.6731C93.4724 87.1257 92.2861 88.5196 91.0064 89.82C85.6871 95.2362 76.456 101.642 62.248 102.261V61.9851C67.7265 61.5147 71.6209 59.3704 75.4011 57.2848C75.9684 56.9701 76.5356 56.6588 77.1028 56.3579L94.5515 85.6731Z" fill="#F8F8F8"/>
<path d="M101.403 67.8024C101.403 72.0289 99.8917 76.8813 97.2873 81.4813L81.1875 54.4245C83.567 53.4907 86.199 52.8682 89.4501 52.8682C95.3886 52.8682 101.403 57.9973 101.403 67.8024Z" fill="#F8F8F8"/>
<path d="M101.026 53.6914C97.9862 50.2605 93.874 48.3721 89.4504 48.3721C82.2565 48.3721 77.6669 50.9003 73.2295 53.349C69.2763 55.5279 65.541 57.5858 60.0003 57.5858C54.4596 57.5858 50.7243 55.5279 46.7677 53.349C42.3303 50.9003 37.7407 48.3721 30.5468 48.3721C26.1232 48.3721 22.0144 50.2605 18.9708 53.6914C15.7854 57.2849 14.1011 62.165 14.1011 67.8026C14.1011 75.9891 18.5765 85.6352 25.7843 92.9709C31.9821 99.2828 42.9494 106.805 60.0003 106.805C77.0513 106.805 88.0151 99.2828 94.2164 92.9709C101.421 85.6352 105.9 75.9891 105.9 67.8026C105.9 62.165 104.215 57.2849 101.026 53.6914ZM18.5973 67.8026C18.5973 57.9974 24.6083 52.8683 30.5468 52.8683C33.8048 52.8683 36.4368 53.4908 38.8163 54.4281L22.713 81.4814C20.1087 76.8814 18.5973 72.029 18.5973 67.8026ZM28.9904 89.8201C27.7142 88.5196 26.5279 87.1258 25.4488 85.6767L42.9009 56.358C43.4681 56.6624 44.0319 56.9736 44.5991 57.2849C48.3794 59.3705 52.2738 61.5148 57.7522 61.9852V102.261C43.5442 101.642 34.3097 95.2363 28.9904 89.8201ZM91.0068 89.8201C85.6874 95.2363 76.4564 101.642 62.2484 102.261V61.9852C67.7268 61.5148 71.6212 59.3705 75.4015 57.2849C75.9687 56.9702 76.5359 56.6589 77.1031 56.358L94.5518 85.6732C93.4728 87.1258 92.2865 88.5196 91.0068 89.8201ZM81.1878 54.4246C83.5673 53.4908 86.1993 52.8683 89.4504 52.8683C95.3888 52.8683 101.403 57.9974 101.403 67.8026C101.403 72.029 99.8919 76.8814 97.2876 81.4814L81.1878 54.4246Z" fill="#070707"/>
</svg>
